<svg width="668" height="277" xmlns="http://www.w3.org/2000/svg" xmlns:xlink="http://www.w3.org/1999/xlink">
 <style type="text/css">.st0{fill:#FFFFFF;stroke:#326DE6;stroke-width:2;stroke-linecap:round;stroke-linejoin:round;stroke-miterlimit:10;}
	.st1{opacity:0.71;fill:#326CE6;}
	.st2{opacity:0.45;fill:#FFFFFF;}
	.st3{fill:#FFFFFF;stroke:#006DE9;stroke-width:2;stroke-linecap:round;stroke-linejoin:round;stroke-miterlimit:10;}
	.st4{fill:#006DE9;}
	.st5{fill:#A0CAEA;}
	.st6{fill:#FFFFFF;}
	.st7{opacity:0.13;}
	.st8{fill:url(#SVGID_1_);}
	.st9{fill:url(#SVGID_2_);}
	.st10{fill:#FFFFFF;stroke:#006DE9;stroke-linecap:round;stroke-linejoin:round;stroke-miterlimit:10;}
	.st11{fill:#FFFFFF;stroke:#006DE9;stroke-width:6;stroke-linecap:round;stroke-linejoin:round;stroke-miterlimit:10;}
	.st12{fill:#FFFFFF;stroke:#326DE6;stroke-width:3.2;stroke-linecap:round;stroke-linejoin:round;stroke-miterlimit:10;}
	.st13{fill:#326DE6;}
	.st14{fill:none;stroke:#326DE6;stroke-width:2.4;stroke-miterlimit:10;}
	.st15{fill:#A0CAE9;}
	.st16{fill:#FFFFFF;stroke:#326DE6;stroke-width:1.6;stroke-linecap:round;stroke-linejoin:round;stroke-miterlimit:10;}
	.st17{fill:#FFFFFF;stroke:#326DE6;stroke-width:1.6;stroke-miterlimit:10;}
	.st18{fill:none;stroke:#06F7C9;stroke-width:2;stroke-miterlimit:10;}
	.st19{fill:none;stroke:#06F7C9;stroke-width:2;stroke-miterlimit:10;stroke-dasharray:2.3749,1.5832;}
	.st20{fill:none;stroke:#06F7C9;stroke-width:2;stroke-miterlimit:10;stroke-dasharray:2.4006,1.6004;}
	.st21{fill:none;stroke:#EEF406;stroke-width:2;stroke-miterlimit:10;stroke-dasharray:2.4,1.6;}
	.st22{fill:none;stroke:#EEF406;stroke-width:2;stroke-miterlimit:10;}
	.st23{fill:none;stroke:#EEF406;stroke-width:2;stroke-miterlimit:10;stroke-dasharray:2.3975,1.5984;}
	.st24{fill:none;stroke:#EEF406;stroke-width:2;stroke-miterlimit:10;stroke-dasharray:2.395,1.5966;}
	.st25{fill:none;stroke:#EEF406;stroke-width:2;stroke-miterlimit:10;stroke-dasharray:2.3963,1.5976;}
	.st26{opacity:0.1;fill:#EEF406;}
	.st27{opacity:2.000000e-02;fill:#EEF406;}
	.st28{opacity:0.1;fill:#06F7C9;}
	.st29{fill:none;stroke:#006DE9;stroke-width:0.8;stroke-miterlimit:10;}
	.st30{opacity:0.1;fill:url(#SVGID_3_);}
	.st31{opacity:0.1;fill:url(#SVGID_4_);}
	.st32{opacity:0.1;fill:url(#SVGID_5_);}
	.st33{opacity:0.1;fill:url(#SVGID_6_);}
	.st34{fill:none;stroke:#326DE6;stroke-width:1.2;stroke-miterlimit:10;}
	.st35{opacity:0.1;fill:url(#SVGID_7_);}
	.st36{opacity:0.1;fill:url(#SVGID_8_);}
	.st37{opacity:0.1;fill:url(#SVGID_9_);}
	.st38{opacity:0.1;fill:url(#SVGID_10_);}
	.st39{fill:none;stroke:#326DE6;stroke-width:2;stroke-miterlimit:10;}
	.st40{opacity:0.4;fill:none;stroke:#EEF406;stroke-width:2;stroke-miterlimit:10;}
	.st41{fill:none;stroke:#EEF406;stroke-width:2.4596;stroke-miterlimit:10;}
	.st42{fill:#011F38;}
	.st43{opacity:0.4;}
	.st44{opacity:0.1;}
	.st45{fill:#326DE6;stroke:#EEF406;stroke-width:2;stroke-miterlimit:10;}
	.st46{fill:none;stroke:#FFFFFF;stroke-width:1.2;stroke-linecap:round;stroke-linejoin:round;}
	.st47{fill:#06F7C9;stroke:#FFFFFF;stroke-width:0.3;stroke-linecap:round;stroke-linejoin:round;stroke-miterlimit:10;}
	.st48{fill:none;stroke:#011F38;stroke-width:1.2;stroke-linecap:round;stroke-linejoin:round;}
	.st49{fill:#326DE6;stroke:#06F7C9;stroke-width:2;stroke-miterlimit:10;}
	.st50{fill:#06F7C9;stroke:#011F38;stroke-width:0.8;stroke-linecap:round;stroke-linejoin:round;stroke-miterlimit:10;}
	.st51{fill:#8115FF;stroke:#011F38;stroke-width:0.8;stroke-linecap:round;stroke-linejoin:round;stroke-miterlimit:10;}
	.st52{opacity:0.3;}
	.st53{opacity:0.2;fill:#6D6E71;}
	.st54{fill:#EEF406;}
	.st55{fill:#06F7C9;}
	.st56{fill:#FFFFFF;stroke:#06F7C9;stroke-width:2;stroke-miterlimit:10;stroke-dasharray:2.4,1.6;}
	.st57{fill:#FFFFFF;stroke:#EEF406;stroke-width:1.6;stroke-miterlimit:10;stroke-dasharray:2.4,1.6;}
	.st58{fill:none;stroke:#06F7C9;stroke-width:2;stroke-miterlimit:10;stroke-dasharray:2.4938,1.6626;}
	.st59{fill:none;stroke:#06F7C9;stroke-width:2;stroke-miterlimit:10;stroke-dasharray:2.0084,1.3389;}
	.st60{fill:none;stroke:#06F7C9;stroke-width:2;stroke-miterlimit:10;stroke-dasharray:2.724,1.816;}
	.st61{fill:#011F38;stroke:#414042;stroke-width:0.3;stroke-linecap:round;stroke-linejoin:round;stroke-miterlimit:10;}
	.st62{fill:none;stroke:#011F38;stroke-width:0.3;stroke-linecap:round;stroke-linejoin:round;stroke-miterlimit:10;}
	.st63{fill:none;stroke:#011F38;stroke-width:0.2813;stroke-linecap:round;stroke-linejoin:round;stroke-miterlimit:10;}</style>
 <defs>
  <linearGradient y2="0.500113" x2="0.999228" y1="0.500113" x1="-0.000149" id="SVGID_1_">
   <stop stop-color="#326DE6" offset="0"/>
   <stop stop-color="#10FFC6" offset="1"/>
  </linearGradient>
  <linearGradient y2="0.500085" x2="1.000466" y1="0.500085" x1="-0.000132" id="SVGID_2_">
   <stop stop-color="#326DE6" offset="0"/>
   <stop stop-color="#10FFC6" offset="1"/>
  </linearGradient>
 </defs>
 <symbol viewBox="-81 -93 162 186.1" id="node_high_level">
  <polygon id="svg_1" points="-80,-46 -80,46 0,92 80,46 80,-46 0,-92  " class="st0"/>
  <g id="Isolation_Mode_3_"/>
 </symbol>
 <symbol viewBox="-87.5 -100.6 175.1 201.1" id="node_x5F_empty">
  <use transform="matrix(1.0808,0,0,1.0808,-0.00003292006,-0.00003749943) " y="-93" x="-81" id="XMLID_201_" height="186.1" width="162" xlink:href="#node_high_level"/>
  <g id="svg_2">
   <polygon id="svg_3" points="76.8,-28.1 -14,-80.3 0,-88.3 76.7,-44.4   " class="st1"/>
   <polygon id="svg_4" points="76.8,-28.1 32.1,-53.8 38.8,-66.1 76.7,-44.4   " class="st2"/>
  </g>
 </symbol>
 <symbol viewBox="-87.6 -101 175.2 202" id="node_x5F_new">
  <polygon id="svg_5" points="0,-100 -86.6,-50 -86.6,50 0,100 86.6,50 86.6,-50  " class="st3"/>
  <polygon id="svg_6" points="-86.6,-20.2 -86.6,-50 0,-100 25.8,-85.1  " class="st4"/>
  <polygon id="svg_7" points="-40.8,-70.7 -32.9,-57 15.7,-85.1 0,-94.3  " class="st5"/>
  <text id="svg_8" font-family="'RobotoSlab-Regular'" class="st6" transform="matrix(0.866,-0.5,-0.5,-0.866,-33.9256,-70.7388) ">Docker</text>
  <text id="svg_9" font-family="'RobotoSlab-Regular'" class="st6" transform="matrix(0.866,-0.5,-0.5,-0.866,-76.0668,-46.4087) ">Kubelt</text>
 </symbol>
 <g>
  <title>background</title>
  <rect fill="#ffffff" id="canvas_background" height="279" width="670" y="-1" x="-1"/>
 </g>
 <g>
  <title>Layer 1</title>
  <g id="CLUSTER"/>
  <g id="master">
   <g id="master_x5F_level1"/>
  </g>
  <g id="Node">
   <g id="Node_x5F_level3_x5F_1">
    <g id="Isolation_Mode"/>
   </g>
  </g>
  <g id="service"/>
  <g id="pods">
   <circle id="svg_10" opacity="0.1" fill="url(#SVGID_1_)" r="41" cy="127.5" cx="163.2"/>
   <circle id="svg_11" opacity="0.1" fill="url(#SVGID_2_)" r="54.6" cy="127.5" cx="292.9"/>
   <circle id="svg_12" r="71" cy="127.5" cx="452.7" class="st30"/>
   <circle id="svg_13" r="30.7" cy="127.5" cx="47.1" class="st31"/>
   <circle id="svg_14" r="41" cy="127.5" cx="163.2" class="st39"/>
   <circle id="svg_15" r="30.7" cy="127.5" cx="47.1" class="st39"/>
   <circle id="svg_16" r="54.6" cy="127.5" cx="292.9" class="st39"/>
   <circle id="svg_17" r="71" cy="127.5" cx="452.7" class="st39"/>
  </g>
  <g id="IP">
   <g id="svg_18">
    <path id="svg_19" d="m121.7,110.7l0.6,-1.4l-6.6,-3l-0.5,1.6l-0.4,-0.2l0.5,-2.4l7.3,3.3l0.7,-1.4l0.5,0.2l-1.6,3.4l-0.5,-0.1z" class="st42"/>
    <path id="svg_20" d="m124.1,100.5c0.9,0.6 1.5,1.2 1.8,1.9c0.3,0.7 0.2,1.4 -0.3,2.1c-0.4,0.7 -1,1.1 -1.8,1.2c-0.8,0.1 -1.6,-0.2 -2.5,-0.7l-1.6,-1c-0.9,-0.6 -1.5,-1.2 -1.8,-1.9c-0.3,-0.7 -0.2,-1.4 0.3,-2.1c0.4,-0.7 1,-1.1 1.8,-1.2c0.8,-0.1 1.6,0.2 2.5,0.7l1.6,1zm-2.1,-0.5c-0.7,-0.5 -1.4,-0.7 -2,-0.6c-0.6,0 -1,0.3 -1.4,0.9c-0.3,0.5 -0.4,1.1 -0.2,1.6c0.2,0.5 0.7,1 1.5,1.5l1.8,1.1c0.7,0.5 1.4,0.7 2,0.6c0.6,0 1,-0.3 1.4,-0.9c0.3,-0.5 0.4,-1.1 0.2,-1.6c-0.2,-0.5 -0.7,-1 -1.5,-1.5l-1.8,-1.1z" class="st42"/>
    <path id="svg_21" d="m128.3,100.4l-0.5,0.6l-0.8,-0.6l0.5,-0.6l0.8,0.6z" class="st42"/>
    <path id="svg_22" d="m128.9,98.8l1,-1.2l-5.3,-4.8l-1,1.4l-0.4,-0.3l1.2,-2.1l5.9,5.3l1.1,-1.1l0.4,0.3l-2.5,2.8l-0.4,-0.3z" class="st42"/>
    <path id="svg_23" d="m134.2,89.8c0.7,0.8 1.1,1.6 1.1,2.4c0,0.8 -0.3,1.4 -0.9,1.9c-0.6,0.5 -1.3,0.7 -2.1,0.6c-0.7,-0.1 -1.5,-0.6 -2.2,-1.5l-1.2,-1.4c-0.7,-0.8 -1.1,-1.6 -1.1,-2.4c0,-0.8 0.3,-1.4 0.9,-1.9c0.6,-0.5 1.3,-0.7 2.1,-0.6c0.7,0.1 1.5,0.6 2.2,1.5l1.2,1.4zm-1.8,-1.1c-0.6,-0.7 -1.1,-1.1 -1.7,-1.2c-0.6,-0.1 -1.1,0 -1.6,0.4c-0.5,0.4 -0.7,0.9 -0.6,1.5c0.1,0.6 0.4,1.2 0.9,1.9l1.4,1.6c0.6,0.7 1.1,1.1 1.7,1.2c0.6,0.1 1.1,0 1.6,-0.4c0.5,-0.4 0.7,-0.9 0.6,-1.5c-0.1,-0.6 -0.4,-1.2 -0.9,-1.9l-1.4,-1.6z" class="st42"/>
    <path id="svg_24" d="m138.3,91l-0.7,0.5l-0.5,-0.8l0.7,-0.5l0.5,0.8z" class="st42"/>
    <path id="svg_25" d="m139.3,89.7l1.3,-0.8l-3.6,-6.2l-1.3,1.1l-0.2,-0.4l1.8,-1.6l4,6.9l1.4,-0.7l0.3,0.4l-3.3,1.9l-0.4,-0.6z" class="st42"/>
    <path id="svg_26" d="m147.2,82.7c0.4,1 0.5,1.9 0.3,2.6c-0.2,0.7 -0.7,1.3 -1.5,1.6c-0.8,0.3 -1.5,0.3 -2.1,-0.1c-0.7,-0.4 -1.2,-1.1 -1.6,-2.1l-0.7,-1.8c-0.4,-1 -0.5,-1.9 -0.3,-2.6s0.7,-1.3 1.4,-1.6c0.8,-0.3 1.5,-0.3 2.1,0.1c0.7,0.4 1.2,1.1 1.6,2.1l0.8,1.8zm-1.4,-1.6c-0.3,-0.8 -0.8,-1.4 -1.2,-1.7c-0.5,-0.3 -1,-0.3 -1.6,-0.1c-0.6,0.2 -0.9,0.7 -1.1,1.2c-0.1,0.6 0,1.2 0.3,2.1l0.8,2c0.3,0.8 0.8,1.4 1.2,1.7c0.5,0.3 1,0.3 1.6,0.1c0.6,-0.2 0.9,-0.7 1.1,-1.2c0.1,-0.6 0,-1.3 -0.3,-2.1l-0.8,-2z" class="st42"/>
    <path id="svg_27" d="m150.6,85.2l-0.8,0.2l-0.3,-0.9l0.8,-0.2l0.3,0.9z" class="st42"/>
    <path id="svg_28" d="m152,84.7l-0.1,-0.5l2.1,-3.6c0.4,-0.7 0.7,-1.2 0.8,-1.6s0.2,-0.8 0.1,-1.2c-0.1,-0.5 -0.3,-0.9 -0.7,-1.2c-0.4,-0.3 -0.8,-0.3 -1.3,-0.2c-0.6,0.1 -1.1,0.4 -1.3,0.8c-0.3,0.4 -0.3,0.9 -0.2,1.5l-0.6,0.1l0,0c-0.2,-0.7 0,-1.3 0.3,-1.9c0.4,-0.6 1,-0.9 1.8,-1.1c0.7,-0.1 1.3,0 1.8,0.3s0.8,0.8 1,1.5c0.1,0.5 0,1 -0.2,1.5s-0.5,1.1 -0.9,1.8l-1.8,3.1l0,0l3.7,-0.7l-0.2,-1.2l0.6,-0.1l0.3,1.8l-5.2,0.9z" class="st42"/>
   </g>
   <g id="svg_29">
    <path id="svg_30" d="m15.9,114.8l0.6,-1.4l-6.5,-3.1l-0.5,1.6l-0.5,-0.2l0.6,-2.4l7.2,3.4l0.7,-1.3l0.5,0.2l-1.6,3.4l-0.5,-0.2z" class="st42"/>
    <path id="svg_31" d="m18.6,104.6c0.9,0.6 1.5,1.3 1.7,2c0.2,0.7 0.1,1.4 -0.4,2.1c-0.5,0.7 -1.1,1 -1.8,1.1s-1.6,-0.2 -2.5,-0.9l-1.6,-1.1c-0.9,-0.6 -1.5,-1.3 -1.7,-2s-0.1,-1.4 0.4,-2.1c0.5,-0.7 1.1,-1 1.9,-1.1c0.8,0 1.6,0.2 2.5,0.9l1.5,1.1zm-2,-0.6c-0.7,-0.5 -1.4,-0.7 -1.9,-0.7s-1,0.3 -1.4,0.8c-0.4,0.5 -0.4,1.1 -0.2,1.6s0.7,1.1 1.4,1.6l1.7,1.2c0.7,0.5 1.4,0.7 1.9,0.7s1.1,-0.3 1.4,-0.8c0.4,-0.5 0.4,-1.1 0.2,-1.6c-0.2,-0.5 -0.7,-1.1 -1.4,-1.6l-1.7,-1.2z" class="st42"/>
    <path id="svg_32" d="m22.8,104.9l-0.5,0.6l-0.7,-0.6l0.5,-0.6l0.7,0.6z" class="st42"/>
    <path id="svg_33" d="m23.5,103.4l1.1,-1.1l-4.8,-5.4l-1.1,1.3l-0.3,-0.4l1.5,-2l5.3,6l1.2,-1l0.3,0.4l-2.8,2.5l-0.4,-0.3z" class="st42"/>
    <path id="svg_34" d="m30.1,95.2c0.6,0.9 0.8,1.8 0.7,2.5c-0.1,0.8 -0.5,1.3 -1.2,1.8c-0.7,0.4 -1.4,0.5 -2.1,0.3s-1.4,-0.9 -1.9,-1.8l-1,-1.6c-0.6,-0.9 -0.8,-1.8 -0.7,-2.5c0.1,-0.8 0.5,-1.3 1.2,-1.8c0.7,-0.4 1.4,-0.5 2.1,-0.3c0.7,0.3 1.4,0.9 1.9,1.8l1,1.6zm-1.7,-1.4c-0.5,-0.7 -1,-1.2 -1.5,-1.4c-0.5,-0.2 -1.1,-0.2 -1.6,0.2c-0.5,0.3 -0.8,0.8 -0.9,1.4c0,0.6 0.2,1.2 0.6,2l1.1,1.8c0.5,0.7 1,1.2 1.5,1.4c0.5,0.2 1.1,0.2 1.6,-0.2c0.5,-0.3 0.8,-0.8 0.9,-1.4s-0.2,-1.2 -0.6,-2l-1.1,-1.8z" class="st42"/>
    <path id="svg_35" d="m33.8,97.1l-0.7,0.3l-0.4,-0.9l0.7,-0.3l0.4,0.9z" class="st42"/>
    <path id="svg_36" d="m35.1,96l1.4,-0.5l-2.2,-6.8l-1.5,0.7l-0.2,-0.5l2.1,-1.2l2.4,7.6l1.5,-0.4l0.2,0.5l-3.6,1.2l-0.1,-0.6z" class="st42"/>
    <path id="svg_37" d="m44.4,91.1c0.2,1.1 0.1,2 -0.3,2.6c-0.4,0.7 -1,1 -1.8,1.2c-0.8,0.1 -1.5,-0.1 -2.1,-0.6s-0.9,-1.3 -1.1,-2.4l-0.3,-1.9c-0.2,-1.1 0,-2 0.3,-2.6c0.4,-0.7 1,-1 1.8,-1.2c0.8,-0.1 1.5,0.1 2.1,0.6c0.6,0.5 0.9,1.3 1.1,2.4l0.3,1.9zm-1,-1.9c-0.1,-0.9 -0.4,-1.5 -0.8,-1.9s-0.9,-0.6 -1.5,-0.5c-0.6,0.1 -1.1,0.4 -1.3,0.9c-0.3,0.5 -0.3,1.2 -0.2,2.1l0.3,2.1c0.1,0.9 0.4,1.5 0.8,1.9c0.4,0.4 0.9,0.6 1.5,0.5c0.6,-0.1 1.1,-0.4 1.3,-0.9s0.3,-1.2 0.2,-2.1l-0.3,-2.1z" class="st42"/>
    <path id="svg_38" d="m47,94.4l-0.8,0l0,-1l0.8,0l0,1z" class="st42"/>
    <path id="svg_39" d="m48.6,93.9l1.5,0.1l0.7,-7.2l-1.7,0.1l0,-0.5l2.4,-0.3l-0.7,7.9l1.5,0.2l-0.1,0.5l-3.7,-0.4l0.1,-0.4z" class="st42"/>
   </g>
   <g id="svg_40">
    <path id="svg_41" d="m246.8,91.7l0.9,-1.2l-5.5,-4.6l-0.9,1.4l-0.4,-0.3l1.1,-2.2l6.1,5.1l1,-1.1l0.4,0.3l-2.4,2.9l-0.3,-0.3z" class="st42"/>
    <path id="svg_42" d="m251.7,82.3c0.8,0.8 1.2,1.5 1.3,2.3c0.1,0.8 -0.2,1.4 -0.8,2c-0.6,0.6 -1.3,0.8 -2,0.7c-0.8,-0.1 -1.5,-0.5 -2.3,-1.3l-1.3,-1.4c-0.8,-0.8 -1.2,-1.5 -1.3,-2.3c-0.1,-0.8 0.2,-1.4 0.7,-2c0.6,-0.6 1.3,-0.8 2,-0.7c0.8,0.1 1.5,0.5 2.3,1.3l1.4,1.4zm-1.9,-0.9c-0.6,-0.6 -1.2,-1 -1.8,-1.1c-0.6,-0.1 -1.1,0.1 -1.5,0.5c-0.4,0.4 -0.6,1 -0.5,1.5c0.1,0.6 0.5,1.2 1.1,1.8l1.5,1.5c0.6,0.6 1.2,1 1.8,1.1c0.6,0.1 1.1,-0.1 1.5,-0.5c0.4,-0.4 0.6,-1 0.5,-1.5s-0.5,-1.2 -1.1,-1.8l-1.5,-1.5z" class="st42"/>
    <path id="svg_43" d="m255.8,83.2l-0.6,0.5l-0.6,-0.7l0.6,-0.5l0.6,0.7z" class="st42"/>
    <path id="svg_44" d="m256.7,81.7l1.2,-1l-4.3,-5.8l-1.2,1.2l-0.3,-0.4l1.6,-1.8l4.8,6.4l1.3,-0.9l0.3,0.4l-3,2.2l-0.4,-0.3z" class="st42"/>
    <path id="svg_45" d="m263.6,73.8c0.6,0.9 0.8,1.8 0.7,2.5c-0.1,0.7 -0.5,1.3 -1.2,1.8c-0.7,0.4 -1.4,0.5 -2.1,0.2c-0.7,-0.3 -1.3,-0.9 -1.9,-1.8l-1,-1.6c-0.6,-0.9 -0.8,-1.8 -0.7,-2.5c0.1,-0.8 0.5,-1.3 1.2,-1.8c0.7,-0.4 1.4,-0.5 2.1,-0.2c0.7,0.3 1.4,0.9 1.9,1.8l1,1.6zm-1.6,-1.4c-0.5,-0.7 -0.9,-1.2 -1.5,-1.5s-1.1,-0.2 -1.6,0.1c-0.5,0.3 -0.8,0.8 -0.9,1.4c0,0.6 0.2,1.2 0.6,2l1.1,1.8c0.4,0.7 0.9,1.2 1.5,1.5c0.5,0.2 1.1,0.2 1.6,-0.1c0.5,-0.3 0.8,-0.8 0.9,-1.4c0,-0.6 -0.2,-1.2 -0.6,-2l-1.1,-1.8z" class="st42"/>
    <path id="svg_46" d="m267.4,75.6l-0.7,0.4l-0.4,-0.9l0.7,-0.4l0.4,0.9z" class="st42"/>
    <path id="svg_47" d="m268.6,74.4l1.4,-0.7l-2.8,-6.6l-1.5,0.9l-0.2,-0.5l2,-1.4l3.1,7.3l1.4,-0.5l0.2,0.5l-3.5,1.5l-0.1,-0.5z" class="st42"/>
    <path id="svg_48" d="m277.3,68.3c0.3,1.1 0.4,1.9 0.1,2.6c-0.3,0.7 -0.8,1.2 -1.6,1.4c-0.8,0.2 -1.5,0.2 -2.1,-0.3c-0.6,-0.4 -1.1,-1.2 -1.4,-2.2l-0.6,-1.8c-0.3,-1 -0.4,-1.9 -0.1,-2.6c0.3,-0.7 0.8,-1.2 1.6,-1.4c0.8,-0.2 1.5,-0.2 2.1,0.3c0.6,0.4 1.1,1.2 1.4,2.2l0.6,1.8zm-1.3,-1.7c-0.3,-0.8 -0.6,-1.4 -1.1,-1.8s-1,-0.4 -1.6,-0.2c-0.6,0.2 -1,0.6 -1.2,1.1c-0.2,0.6 -0.1,1.2 0.1,2.1l0.6,2c0.3,0.8 0.6,1.4 1.1,1.8c0.5,0.4 1,0.4 1.6,0.3c0.6,-0.2 1,-0.6 1.2,-1.1s0.1,-1.2 -0.1,-2.1l-0.6,-2.1z" class="st42"/>
    <path id="svg_49" d="m280.5,71l-0.8,0.2l-0.2,-0.9l0.8,-0.2l0.2,0.9z" class="st42"/>
    <path id="svg_50" d="m282.9,65.8l0.8,-0.1c0.6,-0.1 1.1,-0.3 1.3,-0.7c0.3,-0.4 0.4,-0.8 0.3,-1.3c-0.1,-0.5 -0.3,-0.9 -0.6,-1.2c-0.3,-0.3 -0.8,-0.4 -1.4,-0.3c-0.5,0.1 -1,0.3 -1.3,0.7c-0.3,0.4 -0.4,0.8 -0.3,1.3l-0.6,0.1l0,0c-0.1,-0.7 0,-1.2 0.5,-1.7c0.4,-0.5 1,-0.8 1.7,-0.9c0.8,-0.1 1.4,0 1.9,0.4c0.5,0.3 0.8,0.9 0.9,1.6c0.1,0.4 0,0.8 -0.2,1.2c-0.2,0.4 -0.5,0.7 -0.9,0.9c0.5,0.1 1,0.3 1.3,0.6c0.3,0.3 0.5,0.7 0.6,1.2c0.1,0.7 0,1.4 -0.5,1.9c-0.4,0.5 -1,0.8 -1.8,0.9c-0.7,0.1 -1.4,0 -2,-0.4c-0.6,-0.3 -0.9,-0.9 -1,-1.6l0,0l0.6,-0.1c0.1,0.5 0.3,0.9 0.8,1.2c0.4,0.3 0.9,0.4 1.5,0.3c0.6,-0.1 1,-0.3 1.3,-0.7s0.4,-0.8 0.3,-1.4c-0.1,-0.6 -0.3,-1 -0.7,-1.2c-0.4,-0.2 -0.9,-0.3 -1.6,-0.2l-0.8,0.1l-0.1,-0.6z" class="st42"/>
   </g>
   <g id="svg_51">
    <path id="svg_52" d="m397.1,77.6l1,-1.2l-5.2,-4.9l-1,1.4l-0.4,-0.3l1.3,-2.1l5.8,5.5l1.1,-1.1l0.4,0.4l-2.6,2.7l-0.4,-0.4z" class="st42"/>
    <path id="svg_53" d="m402.5,68.5c0.7,0.8 1.1,1.6 1.2,2.4c0.1,0.8 -0.2,1.4 -0.8,2c-0.6,0.6 -1.3,0.8 -2,0.7s-1.5,-0.6 -2.2,-1.4l-1.3,-1.4c-0.7,-0.8 -1.1,-1.6 -1.2,-2.4s0.2,-1.4 0.8,-2c0.6,-0.6 1.3,-0.8 2,-0.7c0.8,0.1 1.5,0.6 2.2,1.4l1.3,1.4zm-1.9,-1.1c-0.6,-0.6 -1.2,-1 -1.7,-1.2c-0.6,-0.1 -1.1,0 -1.6,0.5c-0.5,0.4 -0.7,0.9 -0.6,1.5c0.1,0.6 0.4,1.2 1,1.8l1.4,1.6c0.6,0.6 1.2,1 1.7,1.2c0.6,0.1 1.1,0 1.6,-0.4c0.5,-0.4 0.7,-0.9 0.6,-1.5c-0.1,-0.6 -0.4,-1.2 -1,-1.8l-1.4,-1.7z" class="st42"/>
    <path id="svg_54" d="m406.5,69.5l-0.6,0.5l-0.6,-0.7l0.6,-0.5l0.6,0.7z" class="st42"/>
    <path id="svg_55" d="m407.5,68l1.2,-1l-4.2,-5.8l-1.2,1.2l-0.3,-0.4l1.6,-1.8l4.7,6.4l1.3,-0.8l0.3,0.4l-3,2.2l-0.4,-0.4z" class="st42"/>
    <path id="svg_56" d="m414.5,60c0.6,0.9 0.8,1.8 0.7,2.5c-0.1,0.8 -0.5,1.3 -1.2,1.8c-0.7,0.4 -1.4,0.5 -2.1,0.3c-0.7,-0.3 -1.4,-0.9 -1.9,-1.8l-1,-1.6c-0.6,-0.9 -0.8,-1.8 -0.7,-2.5c0.1,-0.8 0.5,-1.3 1.2,-1.8c0.7,-0.4 1.4,-0.5 2.1,-0.3c0.7,0.3 1.4,0.9 1.9,1.8l1,1.6zm-1.7,-1.3c-0.5,-0.7 -1,-1.2 -1.5,-1.5c-0.5,-0.2 -1.1,-0.2 -1.6,0.2c-0.5,0.3 -0.8,0.8 -0.9,1.4c0,0.6 0.2,1.2 0.6,2l1.1,1.8c0.5,0.7 1,1.2 1.5,1.5c0.5,0.2 1.1,0.2 1.6,-0.1c0.5,-0.3 0.8,-0.8 0.9,-1.4s-0.2,-1.2 -0.6,-2l-1.1,-1.9z" class="st42"/>
    <path id="svg_57" d="m418.2,61.8l-0.7,0.4l-0.5,-0.8l0.7,-0.4l0.5,0.8z" class="st42"/>
    <path id="svg_58" d="m419.5,60.6l1.4,-0.7l-3.1,-6.5l-1.4,0.9l-0.2,-0.4l1.9,-1.5l3.4,7.2l1.4,-0.6l0.2,0.5l-3.4,1.6l-0.2,-0.5z" class="st42"/>
    <path id="svg_59" d="m427.8,54.1c0.4,1 0.5,1.9 0.2,2.6s-0.7,1.2 -1.5,1.5c-0.8,0.3 -1.5,0.2 -2.1,-0.1c-0.7,-0.4 -1.2,-1.1 -1.6,-2.1l-0.7,-1.8c-0.4,-1 -0.5,-1.9 -0.2,-2.6c0.2,-0.7 0.7,-1.2 1.5,-1.5c0.8,-0.3 1.5,-0.2 2.1,0.1c0.7,0.4 1.2,1.1 1.6,2.1l0.7,1.8zm-1.4,-1.7c-0.3,-0.8 -0.7,-1.4 -1.2,-1.7c-0.5,-0.3 -1,-0.4 -1.6,-0.1c-0.6,0.2 -1,0.6 -1.1,1.2c-0.1,0.6 -0.1,1.2 0.2,2.1l0.8,2c0.3,0.8 0.7,1.4 1.2,1.7s1,0.4 1.6,0.2c0.6,-0.2 1,-0.6 1.1,-1.2s0.1,-1.3 -0.3,-2.1l-0.7,-2.1z" class="st42"/>
    <path id="svg_60" d="m431.2,56.5l-0.8,0.2l-0.3,-0.9l0.8,-0.2l0.3,0.9z" class="st42"/>
    <path id="svg_61" d="m436.3,52.3l1.3,-0.3l0.1,0.6l-1.3,0.3l0.4,1.5l0.9,-0.1l0.1,0.5l-2.5,0.6l-0.1,-0.5l0.9,-0.3l-0.4,-1.5l-3.9,0.9l-0.1,-0.4l2.4,-6.7l0.7,-0.2l1.5,5.6zm-3.7,0.9l3.1,-0.7l-1.1,-4.7l0,0l-0.1,0.7l-1.9,4.7z" class="st42"/>
   </g>
  </g>
  <g id="deployments"/>
  <g id="containers_x2F_volumes">
   <g id="svg_62">
    <g id="svg_63">
     <polygon id="svg_64" points="138.1,120.8 148.6,114.7 159.2,120.8 148.6,126.9    " class="st50"/>
     <polygon id="svg_65" points="138.1,133 138.1,120.8 148.6,126.9 148.6,139.1    " class="st50"/>
     <polygon id="svg_66" points="148.6,139.1 148.6,126.9 159.2,120.8 159.2,133    " class="st50"/>
    </g>
    <g id="svg_67">
     <path id="svg_68" d="m188.2,132.2c0,0 0,0 0,0c0,-0.1 0,-0.1 0,0l0,-10.6l-21.1,0l0,10.6c0,0 0,0 0,0c0,0 0,0 0,0l0,0.2l0,0c0.2,2.9 4.9,5.2 10.5,5.2c5.7,0 10.3,-2.3 10.5,-5.2l0,0l0,-0.2l0.1,0z" class="st51"/>
     <ellipse id="svg_69" ry="5.4" rx="10.6" cy="121.7" cx="177.7" class="st51"/>
    </g>
   </g>
   <g id="svg_70">
    <g id="svg_71">
     <polygon id="svg_72" points="36.5,121.4 47.1,115.3 57.6,121.4 47.1,127.5    " class="st50"/>
     <polygon id="svg_73" points="36.5,133.6 36.5,121.4 47.1,127.5 47.1,139.7    " class="st50"/>
     <polygon id="svg_74" points="47.1,139.7 47.1,127.5 57.6,121.4 57.6,133.6    " class="st50"/>
    </g>
   </g>
   <g id="svg_75">
    <g id="svg_76">
     <polygon id="svg_77" points="282.4,108.7 292.9,102.6 303.5,108.7 292.9,114.8    " class="st50"/>
     <polygon id="svg_78" points="282.4,120.9 282.4,108.7 292.9,114.8 292.9,127    " class="st50"/>
     <polygon id="svg_79" points="292.9,127 292.9,114.8 303.5,108.7 303.5,120.9    " class="st50"/>
    </g>
    <g id="svg_80">
     <polygon id="svg_81" points="270.5,132 278.4,127.4 286.3,132 278.4,136.5    " class="st50"/>
     <polygon id="svg_82" points="270.5,141.1 270.5,132 278.4,136.5 278.4,145.7    " class="st50"/>
     <polygon id="svg_83" points="278.4,145.7 278.4,136.5 286.3,132 286.3,141.1    " class="st50"/>
    </g>
    <g id="svg_84">
     <path id="svg_85" d="m318,141.8c0,0 0,0 0,0c0,0 0,0 0,0l0,-10.6l-21.1,0l0,10.6c0,0 0,0 0,0c0,0 0,0 0,0l0,0.2l0,0c0.2,2.9 4.9,5.2 10.5,5.2c5.7,0 10.3,-2.3 10.5,-5.2l0,0l0,-0.2l0.1,0z" class="st51"/>
     <ellipse id="svg_86" ry="5.4" rx="10.6" cy="131.3" cx="307.4" class="st51"/>
    </g>
   </g>
   <g id="svg_87">
    <g id="svg_88">
     <path id="svg_89" d="m435.6,133.6c0,-0.1 0,-0.1 0,0c0,-0.1 0,-0.1 0,0l0,-10.6l-21.1,0l0,10.6c0,0 0,0 0,0c0,0 0,0 0,0l0,0.2l0,0c0.2,2.9 4.9,5.2 10.5,5.2c5.7,0 10.3,-2.3 10.5,-5.2l0,0l0,-0.2l0.1,0z" class="st51"/>
     <ellipse id="svg_90" ry="5.4" rx="10.6" cy="123" cx="425.1" class="st51"/>
    </g>
    <g id="svg_91">
     <path id="svg_92" d="m479,111.8c0,0 0,0 0,0c0,0 0,0 0,0l0,-10.6l-21.1,0l0,10.6c0,0 0,0 0,0c0,0 0,0 0,0l0,0.2l0,0c0.2,2.9 4.9,5.2 10.5,5.2s10.3,-2.3 10.5,-5.2l0,0l0,-0.2l0.1,0z" class="st51"/>
     <ellipse id="svg_93" ry="5.4" rx="10.6" cy="101.3" cx="468.5" class="st51"/>
    </g>
    <g id="svg_94">
     <polygon id="svg_95" points="443.4,122.2 454,116.1 464.6,122.2 454,128.3    " class="st50"/>
     <polygon id="svg_96" points="443.4,134.4 443.4,122.2 454,128.3 454,140.5    " class="st50"/>
     <polygon id="svg_97" points="454,140.5 454,128.3 464.6,122.2 464.6,134.4    " class="st50"/>
    </g>
    <g id="svg_98">
     <polygon id="svg_99" points="475.1,123.7 483,119.1 490.9,123.7 483,128.3    " class="st50"/>
     <polygon id="svg_100" points="475.1,132.8 475.1,123.7 483,128.3 483,137.4    " class="st50"/>
     <polygon id="svg_101" points="483,137.4 483,128.3 490.9,123.7 490.9,132.8    " class="st50"/>
    </g>
   </g>
   <g id="svg_102">
    <g id="svg_103">
     <polygon id="svg_104" points="442.6,146.8 437.3,143.8 432,146.8 437.3,149.9    " class="st50"/>
     <polygon id="svg_105" points="442.6,152.9 442.6,146.8 437.3,149.9 437.3,156    " class="st50"/>
     <polygon id="svg_106" points="437.3,156 437.3,149.9 432,146.8 432,152.9    " class="st50"/>
    </g>
   </g>
  </g>
  <g id="labels_x2F_selectors"/>
  <g id="description">
   <g id="svg_107">
    <path id="svg_108" d="m150.5,220.6c1.1,0 2,0.3 2.6,0.9s1,1.3 1,2.2c0,0.9 -0.3,1.7 -1,2.2c-0.6,0.6 -1.5,0.8 -2.6,0.8l-1.6,0l0,2.1l1,0.2l0,1.2l-4,0l0,-1.2l1,-0.2l0,-6.8l-1,-0.2l0,-1.2l1,0l3.6,0zm-1.6,4.7l1.6,0c0.5,0 0.9,-0.1 1.2,-0.4c0.3,-0.3 0.4,-0.7 0.4,-1.1c0,-0.5 -0.1,-0.8 -0.4,-1.2c-0.3,-0.3 -0.7,-0.5 -1.2,-0.5l-1.6,0l0,3.2z" class="st42"/>
    <path id="svg_109" d="m154.7,226.6c0,-1.1 0.3,-1.9 0.9,-2.6c0.6,-0.7 1.4,-1 2.5,-1c1.1,0 1.9,0.3 2.5,1c0.6,0.7 0.9,1.6 0.9,2.6l0,0.1c0,1.1 -0.3,2 -0.9,2.6c-0.6,0.7 -1.4,1 -2.5,1c-1.1,0 -1.9,-0.3 -2.5,-1c-0.6,-0.7 -0.9,-1.6 -0.9,-2.6l0,-0.1zm1.9,0.2c0,0.7 0.1,1.2 0.3,1.6c0.2,0.4 0.6,0.6 1.1,0.6c0.5,0 0.9,-0.2 1.1,-0.6s0.3,-0.9 0.3,-1.6l0,-0.1c0,-0.6 -0.1,-1.2 -0.4,-1.6c-0.2,-0.4 -0.6,-0.6 -1.1,-0.6c-0.5,0 -0.9,0.2 -1.1,0.6c-0.2,0.4 -0.3,0.9 -0.3,1.6l0,0.1l0.1,0z" class="st42"/>
    <path id="svg_110" d="m167,229.4c-0.2,0.3 -0.5,0.6 -0.8,0.8c-0.3,0.2 -0.7,0.3 -1.1,0.3c-0.9,0 -1.6,-0.3 -2.1,-1s-0.7,-1.5 -0.7,-2.6l0,-0.1c0,-1.1 0.2,-2 0.7,-2.7c0.5,-0.7 1.2,-1 2.1,-1c0.4,0 0.7,0.1 1,0.2c0.3,0.2 0.5,0.4 0.8,0.7l0,-2.6l-1,-0.2l0,-1.2l1,0l1.9,0l0,9l0.9,0.2l0,1.2l-2.6,0l-0.1,-1zm-2.7,-2.5c0,0.6 0.1,1.1 0.3,1.5s0.6,0.5 1,0.5c0.3,0 0.5,-0.1 0.7,-0.2s0.4,-0.3 0.5,-0.5l0,-3c-0.1,-0.2 -0.3,-0.4 -0.5,-0.5c-0.2,-0.1 -0.4,-0.2 -0.7,-0.2c-0.5,0 -0.8,0.2 -1,0.6s-0.3,1 -0.3,1.6l0,0.2z" class="st42"/>
    <path id="svg_111" d="m173.7,230.3l0,-1.3l3.1,-3.4c0.5,-0.5 0.8,-1 1,-1.3c0.2,-0.4 0.3,-0.7 0.3,-1c0,-0.4 -0.1,-0.7 -0.3,-1c-0.2,-0.3 -0.5,-0.4 -0.9,-0.4c-0.4,0 -0.8,0.2 -1,0.5c-0.2,0.3 -0.3,0.7 -0.3,1.2l-1.9,0l0,0c0,-0.9 0.3,-1.6 0.9,-2.2c0.6,-0.6 1.4,-0.9 2.4,-0.9c1,0 1.8,0.3 2.4,0.8s0.9,1.2 0.9,2.1c0,0.6 -0.2,1.1 -0.5,1.6c-0.3,0.5 -0.9,1.1 -1.6,1.9l-1.7,1.9l0,0l2.5,0l0.1,-1l1.5,0l0,2.4l-6.9,0l0,0.1z" class="st42"/>
   </g>
   <g id="svg_112">
    <path id="svg_113" d="m35.2,220.6c1.1,0 2,0.3 2.6,0.9s1,1.3 1,2.2c0,0.9 -0.3,1.7 -1,2.2c-0.6,0.6 -1.5,0.8 -2.6,0.8l-1.6,0l0,2.1l1,0.2l0,1.2l-4,0l0,-1.2l1,-0.2l0,-6.8l-1,-0.2l0,-1.2l1,0l3.6,0zm-1.7,4.7l1.6,0c0.5,0 0.9,-0.1 1.2,-0.4c0.3,-0.3 0.4,-0.7 0.4,-1.1c0,-0.5 -0.1,-0.8 -0.4,-1.2c-0.3,-0.3 -0.7,-0.5 -1.2,-0.5l-1.6,0l0,3.2z" class="st42"/>
    <path id="svg_114" d="m39.3,226.6c0,-1.1 0.3,-1.9 0.9,-2.6c0.6,-0.7 1.4,-1 2.5,-1c1.1,0 1.9,0.3 2.5,1c0.6,0.7 0.9,1.6 0.9,2.6l0,0.1c0,1.1 -0.3,2 -0.9,2.6c-0.6,0.7 -1.4,1 -2.5,1c-1.1,0 -1.9,-0.3 -2.5,-1c-0.6,-0.7 -0.9,-1.6 -0.9,-2.6l0,-0.1zm2,0.2c0,0.7 0.1,1.2 0.3,1.6c0.2,0.4 0.6,0.6 1.1,0.6c0.5,0 0.9,-0.2 1.1,-0.6s0.3,-0.9 0.3,-1.6l0,-0.1c0,-0.6 -0.1,-1.2 -0.4,-1.6c-0.2,-0.4 -0.6,-0.6 -1.1,-0.6c-0.5,0 -0.9,0.2 -1.1,0.6c-0.2,0.4 -0.3,0.9 -0.3,1.6l0,0.1l0.1,0z" class="st42"/>
    <path id="svg_115" d="m51.6,229.4c-0.2,0.3 -0.5,0.6 -0.8,0.8c-0.3,0.2 -0.7,0.3 -1.1,0.3c-0.9,0 -1.6,-0.3 -2.1,-1s-0.7,-1.5 -0.7,-2.6l0,-0.1c0,-1.1 0.2,-2 0.7,-2.7c0.5,-0.7 1.2,-1 2.1,-1c0.4,0 0.7,0.1 1,0.2c0.3,0.2 0.5,0.4 0.8,0.7l0,-2.6l-1,-0.2l0,-1.2l1,0l1.9,0l0,9l0.9,0.2l0,1.2l-2.6,0l-0.1,-1zm-2.7,-2.5c0,0.6 0.1,1.1 0.3,1.5s0.6,0.5 1,0.5c0.3,0 0.5,-0.1 0.7,-0.2s0.4,-0.3 0.5,-0.5l0,-3c-0.1,-0.2 -0.3,-0.4 -0.5,-0.5c-0.2,-0.1 -0.4,-0.2 -0.7,-0.2c-0.5,0 -0.8,0.2 -1,0.6s-0.3,1 -0.3,1.6l0,0.2z" class="st42"/>
    <path id="svg_116" d="m58.4,229.1l1.6,-0.2l0,-6.5l-1.7,0l0,-1.1l3.6,-0.7l0,8.3l1.6,0.2l0,1.2l-5.2,0l0,-1.2l0.1,0z" class="st42"/>
   </g>
   <g id="svg_117">
    <path id="svg_118" d="m280.3,220.6c1.1,0 2,0.3 2.6,0.9s1,1.3 1,2.2c0,0.9 -0.3,1.7 -1,2.2c-0.6,0.6 -1.5,0.8 -2.6,0.8l-1.6,0l0,2.1l1,0.2l0,1.2l-4,0l0,-1.2l1,-0.2l0,-6.8l-1,-0.2l0,-1.2l1,0l3.6,0zm-1.6,4.7l1.6,0c0.5,0 0.9,-0.1 1.2,-0.4c0.3,-0.3 0.4,-0.7 0.4,-1.1c0,-0.5 -0.1,-0.8 -0.4,-1.2c-0.3,-0.3 -0.7,-0.5 -1.2,-0.5l-1.6,0l0,3.2z" class="st42"/>
    <path id="svg_119" d="m284.5,226.6c0,-1.1 0.3,-1.9 0.9,-2.6c0.6,-0.7 1.4,-1 2.5,-1c1.1,0 1.9,0.3 2.5,1c0.6,0.7 0.9,1.6 0.9,2.6l0,0.1c0,1.1 -0.3,2 -0.9,2.6c-0.6,0.7 -1.4,1 -2.5,1c-1.1,0 -1.9,-0.3 -2.5,-1c-0.6,-0.7 -0.9,-1.6 -0.9,-2.6l0,-0.1zm1.9,0.2c0,0.7 0.1,1.2 0.3,1.6c0.2,0.4 0.6,0.6 1.1,0.6c0.5,0 0.9,-0.2 1.1,-0.6s0.3,-0.9 0.3,-1.6l0,-0.1c0,-0.6 -0.1,-1.2 -0.4,-1.6c-0.2,-0.4 -0.6,-0.6 -1.1,-0.6c-0.5,0 -0.9,0.2 -1.1,0.6c-0.2,0.4 -0.3,0.9 -0.3,1.6l0,0.1l0.1,0z" class="st42"/>
    <path id="svg_120" d="m296.8,229.4c-0.2,0.3 -0.5,0.6 -0.8,0.8c-0.3,0.2 -0.7,0.3 -1.1,0.3c-0.9,0 -1.6,-0.3 -2.1,-1s-0.7,-1.5 -0.7,-2.6l0,-0.1c0,-1.1 0.2,-2 0.7,-2.7c0.5,-0.7 1.2,-1 2.1,-1c0.4,0 0.7,0.1 1,0.2c0.3,0.2 0.5,0.4 0.8,0.7l0,-2.6l-1,-0.2l0,-1.2l1,0l1.9,0l0,9l0.9,0.2l0,1.2l-2.6,0l-0.1,-1zm-2.7,-2.5c0,0.6 0.1,1.1 0.3,1.5s0.6,0.5 1,0.5c0.3,0 0.5,-0.1 0.7,-0.2s0.4,-0.3 0.5,-0.5l0,-3c-0.1,-0.2 -0.3,-0.4 -0.5,-0.5c-0.2,-0.1 -0.4,-0.2 -0.7,-0.2c-0.5,0 -0.8,0.2 -1,0.6s-0.3,1 -0.3,1.6l0,0.2z" class="st42"/>
    <path id="svg_121" d="m305.6,224.6l1.1,0c0.5,0 0.8,-0.1 1,-0.4s0.3,-0.6 0.3,-1c0,-0.4 -0.1,-0.7 -0.3,-0.9c-0.2,-0.2 -0.5,-0.4 -1,-0.4c-0.4,0 -0.7,0.1 -0.9,0.3c-0.2,0.2 -0.4,0.5 -0.4,0.8l-1.9,0l0,0c0,-0.8 0.3,-1.4 0.9,-1.9c0.6,-0.5 1.4,-0.7 2.3,-0.7c1,0 1.8,0.2 2.4,0.7c0.6,0.5 0.9,1.2 0.9,2c0,0.4 -0.1,0.8 -0.4,1.2s-0.6,0.7 -1.1,0.9c0.5,0.2 0.9,0.5 1.2,0.9s0.4,0.9 0.4,1.4c0,0.9 -0.3,1.6 -1,2.1c-0.6,0.5 -1.5,0.8 -2.5,0.8c-0.9,0 -1.7,-0.2 -2.3,-0.7c-0.6,-0.5 -1,-1.1 -0.9,-2l0,0l1.9,0c0,0.4 0.1,0.7 0.4,0.9s0.6,0.4 1,0.4c0.4,0 0.8,-0.1 1.1,-0.4c0.3,-0.2 0.4,-0.6 0.4,-1c0,-0.5 -0.1,-0.9 -0.4,-1.1c-0.3,-0.2 -0.6,-0.4 -1.1,-0.4l-1.1,0l0,-1.5z" class="st42"/>
   </g>
   <g id="svg_122">
    <path id="svg_123" d="m440.2,220.6c1.1,0 2,0.3 2.6,0.9s1,1.3 1,2.2c0,0.9 -0.3,1.7 -1,2.2c-0.6,0.6 -1.5,0.8 -2.6,0.8l-1.6,0l0,2.1l1,0.2l0,1.2l-4,0l0,-1.2l1,-0.2l0,-6.8l-1,-0.2l0,-1.2l1,0l3.6,0zm-1.6,4.7l1.6,0c0.5,0 0.9,-0.1 1.2,-0.4c0.3,-0.3 0.4,-0.7 0.4,-1.1c0,-0.5 -0.1,-0.8 -0.4,-1.2c-0.3,-0.3 -0.7,-0.5 -1.2,-0.5l-1.6,0l0,3.2z" class="st42"/>
    <path id="svg_124" d="m444.4,226.6c0,-1.1 0.3,-1.9 0.9,-2.6c0.6,-0.7 1.4,-1 2.5,-1c1.1,0 1.9,0.3 2.5,1c0.6,0.7 0.9,1.6 0.9,2.6l0,0.1c0,1.1 -0.3,2 -0.9,2.6c-0.6,0.7 -1.4,1 -2.5,1c-1.1,0 -1.9,-0.3 -2.5,-1c-0.6,-0.7 -0.9,-1.6 -0.9,-2.6l0,-0.1zm1.9,0.2c0,0.7 0.1,1.2 0.3,1.6c0.2,0.4 0.6,0.6 1.1,0.6c0.5,0 0.9,-0.2 1.1,-0.6s0.3,-0.9 0.3,-1.6l0,-0.1c0,-0.6 -0.1,-1.2 -0.4,-1.6c-0.2,-0.4 -0.6,-0.6 -1.1,-0.6c-0.5,0 -0.9,0.2 -1.1,0.6c-0.2,0.4 -0.3,0.9 -0.3,1.6l0,0.1l0.1,0z" class="st42"/>
    <path id="svg_125" d="m456.7,229.4c-0.2,0.3 -0.5,0.6 -0.8,0.8c-0.3,0.2 -0.7,0.3 -1.1,0.3c-0.9,0 -1.6,-0.3 -2.1,-1s-0.7,-1.5 -0.7,-2.6l0,-0.1c0,-1.1 0.2,-2 0.7,-2.7c0.5,-0.7 1.2,-1 2.1,-1c0.4,0 0.7,0.1 1,0.2c0.3,0.2 0.5,0.4 0.8,0.7l0,-2.6l-1,-0.2l0,-1.2l1,0l1.9,0l0,9l0.9,0.2l0,1.2l-2.6,0l-0.1,-1zm-2.7,-2.5c0,0.6 0.1,1.1 0.3,1.5s0.6,0.5 1,0.5c0.3,0 0.5,-0.1 0.7,-0.2s0.4,-0.3 0.5,-0.5l0,-3c-0.1,-0.2 -0.3,-0.4 -0.5,-0.5c-0.2,-0.1 -0.4,-0.2 -0.7,-0.2c-0.5,0 -0.8,0.2 -1,0.6s-0.3,1 -0.3,1.6l0,0.2z" class="st42"/>
    <path id="svg_126" d="m469.2,226.7l1.1,0l0,1.3l-1.1,0l0,0.9l1,0.2l0,1.2l-4,0l0,-1.2l1,-0.2l0,-0.9l-3.9,0l-0.1,-0.9l4,-6.4l2,0l0,6zm-4.2,0l2.2,0l0,-3.5l0,0l-0.2,0.3l-2,3.2z" class="st42"/>
   </g>
   <g id="svg_127">
    <path id="svg_128" d="m560.2,131.7c0.4,0 0.7,-0.1 1,-0.4s0.4,-0.5 0.4,-0.9l1,0l0,0c0,0.5 -0.2,1 -0.7,1.5s-1.1,0.6 -1.8,0.6c-0.9,0 -1.6,-0.3 -2.1,-0.9s-0.7,-1.4 -0.7,-2.3l0,-0.2c0,-0.9 0.2,-1.7 0.7,-2.3s1.2,-0.9 2.1,-0.9c0.5,0 1,0.1 1.4,0.3s0.7,0.4 1,0.7l0.1,1.4l-0.9,0l-0.3,-1c-0.1,-0.1 -0.3,-0.2 -0.5,-0.3s-0.5,-0.1 -0.7,-0.1c-0.6,0 -1,0.2 -1.3,0.7s-0.4,1 -0.4,1.6l0,0.2c0,0.6 0.1,1.2 0.4,1.6s0.7,0.7 1.3,0.7z" class="st42"/>
    <path id="svg_129" d="m563.8,129.2c0,-0.9 0.3,-1.7 0.8,-2.3s1.2,-0.9 2.1,-0.9c0.9,0 1.6,0.3 2.1,0.9s0.8,1.4 0.8,2.3l0,0.1c0,0.9 -0.3,1.7 -0.8,2.3s-1.2,0.9 -2.1,0.9c-0.9,0 -1.6,-0.3 -2.1,-0.9s-0.8,-1.4 -0.8,-2.3l0,-0.1zm1.2,0.1c0,0.7 0.1,1.2 0.4,1.7s0.7,0.7 1.3,0.7c0.5,0 1,-0.2 1.2,-0.7s0.4,-1 0.4,-1.7l0,-0.1c0,-0.7 -0.1,-1.2 -0.4,-1.7s-0.7,-0.7 -1.3,-0.7s-1,0.2 -1.3,0.7s-0.4,1 -0.4,1.7l0,0.1l0.1,0z" class="st42"/>
    <path id="svg_130" d="m570.4,131.7l1,-0.2l0,-4.5l-1,-0.2l0,-0.7l2,0l0.1,0.9c0.2,-0.3 0.5,-0.6 0.8,-0.8s0.7,-0.3 1.1,-0.3c0.7,0 1.2,0.2 1.6,0.6s0.6,1 0.6,1.9l0,3.1l1,0.2l0,0.7l-3.1,0l0,-0.7l1,-0.2l0,-3.1c0,-0.6 -0.1,-1 -0.3,-1.2s-0.6,-0.4 -1,-0.4c-0.3,0 -0.6,0.1 -0.9,0.2s-0.5,0.4 -0.6,0.7l0,3.7l1,0.2l0,0.7l-3.1,0l0,-0.6l-0.2,0z" class="st42"/>
    <path id="svg_131" d="m580.3,124.6l0,1.5l1.2,0l0,0.9l-1.2,0l0,3.8c0,0.3 0.1,0.5 0.2,0.6s0.3,0.2 0.5,0.2c0.1,0 0.2,0 0.3,0s0.2,0 0.3,-0.1l0.2,0.8c-0.1,0.1 -0.3,0.1 -0.5,0.2s-0.4,0.1 -0.6,0.1c-0.5,0 -0.8,-0.1 -1.1,-0.4s-0.4,-0.7 -0.4,-1.3l0,-3.8l-1,0l0,-0.9l1,0l0,-1.5l1.1,0l0,-0.1z" class="st42"/>
    <path id="svg_132" d="m586.8,132.4c0,-0.2 -0.1,-0.3 -0.1,-0.5s0,-0.3 0,-0.4c-0.2,0.3 -0.5,0.5 -0.8,0.7s-0.7,0.3 -1.1,0.3c-0.7,0 -1.2,-0.2 -1.5,-0.5s-0.5,-0.8 -0.5,-1.4c0,-0.6 0.2,-1.1 0.7,-1.4s1.2,-0.5 2,-0.5l1.2,0l0,-0.7c0,-0.4 -0.1,-0.7 -0.4,-0.9s-0.6,-0.3 -1,-0.3c-0.3,0 -0.5,0 -0.8,0.1s-0.4,0.2 -0.5,0.3l-0.1,0.7l-0.9,0l0,-1.2c0.3,-0.2 0.6,-0.4 1,-0.6s0.9,-0.2 1.3,-0.2c0.7,0 1.3,0.2 1.7,0.6s0.7,0.9 0.7,1.6l0,3.1c0,0.1 0,0.2 0,0.2s0,0.2 0,0.2l0.5,0.1l0,0.7l-1.4,0zm-1.8,-0.8c0.4,0 0.7,-0.1 1,-0.3s0.5,-0.4 0.7,-0.7l0,-1l-1.2,0c-0.5,0 -0.8,0.1 -1.1,0.3s-0.4,0.5 -0.4,0.8c0,0.3 0.1,0.5 0.3,0.6s0.3,0.3 0.7,0.3z" class="st42"/>
    <path id="svg_133" d="m589.3,131.7l1,-0.2l0,-4.5l-1,-0.2l0,-0.7l2.1,0l0,5.4l1,0.2l0,0.7l-3.1,0l0,-0.7zm2.1,-7.2l-1.2,0l0,-1.2l1.2,0l0,1.2z" class="st42"/>
    <path id="svg_134" d="m593.1,131.7l1,-0.2l0,-4.5l-1,-0.2l0,-0.7l2,0l0.1,0.9c0.2,-0.3 0.5,-0.6 0.8,-0.8s0.7,-0.3 1.1,-0.3c0.7,0 1.2,0.2 1.6,0.6s0.6,1 0.6,1.9l0,3.1l1,0.2l0,0.7l-3.3,0l0,-0.7l1,-0.2l0,-3.1c0,-0.6 -0.1,-1 -0.3,-1.2s-0.6,-0.4 -1,-0.4c-0.3,0 -0.6,0.1 -0.9,0.2s-0.5,0.4 -0.6,0.7l0,3.7l1,0.2l0,0.7l-3.1,0l0,-0.6z" class="st42"/>
    <path id="svg_135" d="m603.8,132.6c-0.9,0 -1.6,-0.3 -2.1,-0.9s-0.8,-1.4 -0.8,-2.3l0,-0.3c0,-0.9 0.3,-1.7 0.8,-2.3s1.2,-0.9 1.9,-0.9c0.9,0 1.5,0.3 1.9,0.8s0.7,1.2 0.7,2.1l0,0.7l-4.1,0l0,0c0,0.6 0.2,1.1 0.5,1.5s0.7,0.6 1.2,0.6c0.4,0 0.7,-0.1 1,-0.2s0.5,-0.3 0.8,-0.5l0.5,0.8c-0.2,0.2 -0.5,0.4 -0.9,0.6s-0.9,0.3 -1.4,0.3zm-0.2,-5.7c-0.4,0 -0.7,0.2 -1,0.5s-0.4,0.7 -0.5,1.2l0,0l2.9,0l0,-0.2c0,-0.5 -0.1,-0.8 -0.4,-1.1s-0.5,-0.4 -1,-0.4z" class="st42"/>
    <path id="svg_136" d="m607.3,126.8l0,-0.7l2,0l0.1,0.9c0.2,-0.3 0.4,-0.6 0.7,-0.8s0.6,-0.3 0.9,-0.3c0.1,0 0.2,0 0.3,0s0.2,0 0.2,0l-0.2,1.1l-0.7,0c-0.3,0 -0.6,0.1 -0.8,0.2s-0.4,0.3 -0.5,0.6l0,3.6l1,0.2l0,0.7l-3.1,0l0,-0.7l1,-0.2l0,-4.4l-0.9,-0.2z" class="st42"/>
    <path id="svg_137" d="m612.3,131.7l1,-0.2l0,-4.5l-1,-0.2l0,-0.7l2.1,0l0,5.4l1,0.2l0,0.7l-3.1,0l0,-0.7zm2.1,-7.2l-1.2,0l0,-1.2l1.2,0l0,1.2z" class="st42"/>
    <path id="svg_138" d="m617.8,131.5l2.6,0l0.1,-1l1,0l0,1.9l-5,0l0,-0.8l3.4,-4.6l-2.3,0l-0.1,1l-1,0l0,-1.9l4.8,0l0,0.8l-3.5,4.6z" class="st42"/>
    <path id="svg_139" d="m625.4,132.6c-0.9,0 -1.6,-0.3 -2.1,-0.9s-0.8,-1.4 -0.8,-2.3l0,-0.3c0,-0.9 0.3,-1.7 0.8,-2.3s1.2,-0.9 1.9,-0.9c0.9,0 1.5,0.3 1.9,0.8s0.7,1.2 0.7,2.1l0,0.7l-4.1,0l0,0c0,0.6 0.2,1.1 0.5,1.5s0.7,0.6 1.2,0.6c0.4,0 0.7,-0.1 1,-0.2s0.5,-0.3 0.8,-0.5l0.5,0.8c-0.2,0.2 -0.5,0.4 -0.9,0.6s-0.9,0.3 -1.4,0.3zm-0.2,-5.7c-0.4,0 -0.7,0.2 -1,0.5s-0.4,0.7 -0.5,1.2l0,0l2.9,0l0,-0.2c0,-0.5 -0.1,-0.8 -0.4,-1.1s-0.5,-0.4 -1,-0.4z" class="st42"/>
    <path id="svg_140" d="m633.2,131.7c-0.2,0.3 -0.5,0.5 -0.8,0.7s-0.6,0.2 -1,0.2c-0.8,0 -1.4,-0.3 -1.8,-0.8s-0.7,-1.3 -0.7,-2.2l0,-0.1c0,-1 0.2,-1.8 0.7,-2.5s1,-0.9 1.8,-0.9c0.4,0 0.7,0.1 1,0.2s0.5,0.3 0.7,0.6l0,-2.6l-1,-0.2l0,-0.7l1,0l1.2,0l0,8.2l1,0.2l0,0.7l-2,0l-0.1,-0.8zm-3.1,-2.2c0,0.6 0.1,1.1 0.4,1.5s0.7,0.6 1.2,0.6c0.3,0 0.6,-0.1 0.9,-0.2s0.4,-0.4 0.6,-0.7l0,-2.9c-0.1,-0.3 -0.3,-0.5 -0.6,-0.6s-0.5,-0.2 -0.9,-0.2c-0.6,0 -1,0.2 -1.2,0.7s-0.4,1.1 -0.4,1.8l0,0z" class="st42"/>
    <path id="svg_141" d="m643.3,132.4c0,-0.2 -0.1,-0.3 -0.1,-0.5s0,-0.3 0,-0.4c-0.2,0.3 -0.5,0.5 -0.8,0.7s-0.7,0.3 -1.1,0.3c-0.7,0 -1.2,-0.2 -1.5,-0.5s-0.5,-0.8 -0.5,-1.4c0,-0.6 0.2,-1.1 0.7,-1.4s1.2,-0.5 2,-0.5l1.2,0l0,-0.7c0,-0.4 -0.1,-0.7 -0.4,-0.9s-0.6,-0.3 -1,-0.3c-0.3,0 -0.5,0 -0.8,0.1s-0.4,0.2 -0.5,0.3l-0.1,0.7l-0.9,0l0,-1.2c0.3,-0.2 0.6,-0.4 1,-0.6s0.9,-0.2 1.3,-0.2c0.7,0 1.3,0.2 1.7,0.6s0.7,0.9 0.7,1.6l0,3.1c0,0.1 0,0.2 0,0.2s0,0.2 0,0.2l0.5,0.1l0,0.7l-1.4,0zm-1.9,-0.8c0.4,0 0.7,-0.1 1,-0.3s0.5,-0.4 0.7,-0.7l0,-1l-1.2,0c-0.5,0 -0.8,0.1 -1.1,0.3s-0.4,0.5 -0.4,0.8c0,0.3 0.1,0.5 0.3,0.6s0.4,0.3 0.7,0.3z" class="st42"/>
    <path id="svg_142" d="m645.6,134.1l1,-0.2l0,-7l-1,-0.2l0,-0.7l1.9,0l0.1,0.8c0.2,-0.3 0.5,-0.5 0.8,-0.7s0.7,-0.2 1.1,-0.2c0.8,0 1.4,0.3 1.8,0.9s0.7,1.4 0.7,2.5l0,0.1c0,0.9 -0.2,1.7 -0.7,2.2s-1,0.8 -1.8,0.8c-0.4,0 -0.7,-0.1 -1,-0.2s-0.5,-0.3 -0.8,-0.6l0,2.2l1,0.2l0,0.7l-3.1,0l0,-0.6zm5.2,-4.7c0,-0.7 -0.1,-1.3 -0.4,-1.8s-0.7,-0.7 -1.3,-0.7c-0.3,0 -0.6,0.1 -0.8,0.2s-0.4,0.4 -0.6,0.6l0,3.1c0.1,0.3 0.3,0.5 0.6,0.6s0.5,0.2 0.9,0.2c0.5,0 1,-0.2 1.2,-0.6s0.4,-0.9 0.4,-1.6l0,0z" class="st42"/>
    <path id="svg_143" d="m652.9,134.1l1,-0.2l0,-7l-1,-0.2l0,-0.7l1.9,0l0.1,0.8c0.2,-0.3 0.5,-0.5 0.8,-0.7s0.7,-0.2 1.1,-0.2c0.8,0 1.4,0.3 1.8,0.9s0.7,1.4 0.7,2.5l0,0.1c0,0.9 -0.2,1.7 -0.7,2.2s-1,0.8 -1.8,0.8c-0.4,0 -0.7,-0.1 -1,-0.2s-0.5,-0.3 -0.8,-0.6l0,2.2l1,0.2l0,0.7l-3.1,0l0,-0.6zm5.2,-4.7c0,-0.7 -0.1,-1.3 -0.4,-1.8s-0.7,-0.7 -1.3,-0.7c-0.3,0 -0.6,0.1 -0.8,0.2s-0.4,0.4 -0.6,0.6l0,3.1c0.1,0.3 0.3,0.5 0.6,0.6s0.5,0.2 0.9,0.2c0.5,0 1,-0.2 1.2,-0.6s0.4,-0.9 0.4,-1.6l0,0z" class="st42"/>
   </g>
   <line id="svg_144" y2="130" x2="481.7" y1="130" x1="554.8" class="st61"/>
   <g id="svg_145">
    <path id="svg_146" d="m559.5,106.8l-0.8,0.1l1.3,3.6l0.1,0.5l0,0l0.1,-0.5l1.3,-3.6l-0.8,-0.1l0,-0.8l2.4,0l0,0.7l-0.5,0.1l-2.1,5.5l-0.9,0l-2.2,-5.5l-0.5,-0.1l0,-0.7l2.4,0l0,0.8l0.2,0z" class="st42"/>
    <path id="svg_147" d="m564,109.1c0,-0.9 0.3,-1.7 0.8,-2.3s1.2,-0.9 2.1,-0.9c0.9,0 1.6,0.3 2.1,0.9s0.8,1.4 0.8,2.3l0,0.1c0,0.9 -0.3,1.7 -0.8,2.3s-1.2,0.9 -2.1,0.9c-0.9,0 -1.6,-0.3 -2.1,-0.9s-0.8,-1.4 -0.8,-2.3l0,-0.1zm1.1,0.2c0,0.7 0.1,1.2 0.4,1.7s0.7,0.7 1.3,0.7c0.5,0 1,-0.2 1.2,-0.7s0.4,-1 0.4,-1.7l0,-0.1c0,-0.7 -0.1,-1.2 -0.4,-1.7s-0.7,-0.7 -1.3,-0.7s-1,0.2 -1.3,0.7s-0.4,1 -0.4,1.7l0,0.1l0.1,0z" class="st42"/>
    <path id="svg_148" d="m570.4,104l0,-0.7l2.1,0l0,8.2l1,0.2l0,0.7l-3.1,0l0,-0.7l1,-0.2l0,-7.3l-1,-0.2z" class="st42"/>
    <path id="svg_149" d="m578.9,111.4c-0.2,0.3 -0.5,0.6 -0.8,0.8s-0.7,0.3 -1.1,0.3c-0.7,0 -1.2,-0.2 -1.6,-0.7s-0.6,-1.1 -0.6,-2.1l0,-2.8l-0.7,-0.2l0,-0.7l0.7,0l1.2,0l0,3.8c0,0.7 0.1,1.1 0.3,1.4s0.5,0.4 0.9,0.4c0.4,0 0.7,-0.1 1,-0.2s0.5,-0.4 0.6,-0.7l0,-3.7l-0.8,-0.2l0,-0.8l0.8,0l1.2,0l0,5.4l0.7,0.2l0,0.7l-1.7,0l-0.1,-0.9z" class="st42"/>
    <path id="svg_150" d="m581.4,111.6l1,-0.2l0,-4.5l-1,-0.2l0,-0.7l2,0l0.1,0.8c0.2,-0.3 0.5,-0.5 0.8,-0.7s0.7,-0.2 1.1,-0.2s0.8,0.1 1.1,0.3s0.5,0.5 0.7,0.9c0.2,-0.4 0.5,-0.6 0.8,-0.9s0.7,-0.3 1.1,-0.3c0.6,0 1.2,0.2 1.5,0.7s0.6,1.1 0.6,2l0,2.9l1,0.2l0,0.7l-3.1,0l0,-0.7l1,-0.2l0,-2.9c0,-0.6 -0.1,-1.1 -0.3,-1.3s-0.5,-0.4 -1,-0.4c-0.4,0 -0.7,0.1 -1,0.4s-0.4,0.6 -0.4,1.1l0,3.1l1,0.2l0,0.7l-3.1,0l0,-0.7l1,-0.2l0,-2.9c0,-0.6 -0.1,-1 -0.3,-1.3s-0.5,-0.4 -1,-0.4c-0.4,0 -0.6,0.1 -0.9,0.2s-0.4,0.3 -0.5,0.6l0,3.8l1,0.2l0,0.7l-3.1,0l0,-0.8l-0.1,0z" class="st42"/>
    <path id="svg_151" d="m595.8,112.5c-0.9,0 -1.6,-0.3 -2.1,-0.9s-0.8,-1.4 -0.8,-2.3l0,-0.3c0,-0.9 0.3,-1.7 0.8,-2.3s1.2,-0.9 1.9,-0.9c0.9,0 1.5,0.3 1.9,0.8s0.7,1.2 0.7,2.1l0,0.7l-4.1,0l0,0c0,0.6 0.2,1.1 0.5,1.5s0.7,0.6 1.2,0.6c0.4,0 0.7,-0.1 1,-0.2s0.5,-0.3 0.8,-0.5l0.5,0.8c-0.2,0.2 -0.5,0.4 -0.9,0.6s-0.9,0.3 -1.4,0.3zm-0.2,-5.7c-0.4,0 -0.7,0.2 -1,0.5s-0.4,0.7 -0.5,1.2l0,0l2.9,0l0,-0.2c0,-0.5 -0.1,-0.8 -0.4,-1.1s-0.5,-0.4 -1,-0.4z" class="st42"/>
   </g>
   <line id="svg_152" y2="110" x2="468.4" y1="110" x1="554.8" class="st61"/>
   <g id="svg_153">
    <path id="svg_154" d="m557.2,46.7l0,-0.7l3.1,0l0,0.7l-1,0.2l0,6.7l1,0.2l0,0.7l-3.1,0l0,-0.7l1,-0.2l0,-6.7l-1,-0.2z" class="st42"/>
    <path id="svg_155" d="m565,46c0.9,0 1.6,0.2 2.1,0.7s0.8,1.1 0.8,1.9c0,0.8 -0.3,1.4 -0.8,1.9s-1.2,0.7 -2.1,0.7l-1.8,0l0,2.5l1,0.2l0,0.7l-3.1,0l0,-0.7l1,-0.2l0,-6.7l-1,-0.2l0,-0.8l1,0l2.9,0zm-1.8,4.2l1.8,0c0.6,0 1,-0.2 1.3,-0.5s0.4,-0.7 0.4,-1.2s-0.1,-0.9 -0.4,-1.2s-0.7,-0.5 -1.3,-0.5l-1.8,0l0,3.4z" class="st42"/>
    <path id="svg_156" d="m576,54.5c0,-0.2 -0.1,-0.3 -0.1,-0.5s0,-0.3 0,-0.4c-0.2,0.3 -0.5,0.5 -0.8,0.7s-0.7,0.3 -1.1,0.3c-0.7,0 -1.2,-0.2 -1.5,-0.5s-0.5,-0.8 -0.5,-1.4c0,-0.6 0.2,-1.1 0.7,-1.4s1.2,-0.5 2,-0.5l1.2,0l0,-0.7c0,-0.4 -0.1,-0.7 -0.4,-0.9s-0.6,-0.3 -1,-0.3c-0.3,0 -0.5,0 -0.8,0.1s-0.4,0.2 -0.5,0.3l-0.1,0.7l-0.9,0l0,-1.2c0.3,-0.2 0.6,-0.4 1,-0.6s0.9,-0.2 1.3,-0.2c0.7,0 1.3,0.2 1.7,0.6s0.7,0.9 0.7,1.6l0,3.1c0,0.1 0,0.2 0,0.2s0,0.2 0,0.2l0.5,0.1l0,0.7l-1.4,0zm-1.9,-0.9c0.4,0 0.7,-0.1 1,-0.3s0.5,-0.4 0.7,-0.7l0,-1l-1.2,0c-0.5,0 -0.8,0.1 -1.1,0.3s-0.4,0.5 -0.4,0.8c0,0.3 0.1,0.5 0.3,0.6s0.4,0.3 0.7,0.3z" class="st42"/>
    <path id="svg_157" d="m582.7,53.7c-0.2,0.3 -0.5,0.5 -0.8,0.7s-0.6,0.2 -1,0.2c-0.8,0 -1.4,-0.3 -1.8,-0.8s-0.7,-1.3 -0.7,-2.2l0,-0.1c0,-1 0.2,-1.8 0.7,-2.5s1,-0.9 1.8,-0.9c0.4,0 0.7,0.1 1,0.2s0.5,0.3 0.7,0.6l0,-2.6l-1,-0.2l0,-0.7l1,0l1.2,0l0,8.2l1,0.2l0,0.7l-2,0l-0.1,-0.8zm-3.1,-2.1c0,0.6 0.1,1.1 0.4,1.5s0.7,0.6 1.2,0.6c0.3,0 0.6,-0.1 0.9,-0.2s0.4,-0.4 0.6,-0.7l0,-2.9c-0.1,-0.3 -0.3,-0.5 -0.6,-0.6s-0.5,-0.2 -0.9,-0.2c-0.6,0 -1,0.2 -1.2,0.7s-0.4,1.1 -0.4,1.8l0,0z" class="st42"/>
    <path id="svg_158" d="m589.9,53.7c-0.2,0.3 -0.5,0.5 -0.8,0.7s-0.6,0.2 -1,0.2c-0.8,0 -1.4,-0.3 -1.8,-0.8s-0.7,-1.3 -0.7,-2.2l0,-0.1c0,-1 0.2,-1.8 0.7,-2.5s1,-0.9 1.8,-0.9c0.4,0 0.7,0.1 1,0.2s0.5,0.3 0.7,0.6l0,-2.6l-1,-0.2l0,-0.7l1,0l1.2,0l0,8.2l1,0.2l0,0.7l-2,0l-0.1,-0.8zm-3.1,-2.1c0,0.6 0.1,1.1 0.4,1.5s0.7,0.6 1.2,0.6c0.3,0 0.6,-0.1 0.9,-0.2s0.4,-0.4 0.6,-0.7l0,-2.9c-0.1,-0.3 -0.3,-0.5 -0.6,-0.6s-0.5,-0.2 -0.9,-0.2c-0.6,0 -1,0.2 -1.2,0.7s-0.4,1.1 -0.4,1.8l0,0z" class="st42"/>
    <path id="svg_159" d="m592.9,48.9l0,-0.7l2,0l0.1,0.9c0.2,-0.3 0.4,-0.6 0.7,-0.8s0.6,-0.3 0.9,-0.3c0.1,0 0.2,0 0.3,0s0.2,0 0.2,0l-0.2,1.1l-0.7,0c-0.3,0 -0.6,0.1 -0.8,0.2s-0.4,0.3 -0.5,0.6l0,3.6l1,0.2l0,0.7l-3.1,0l0,-0.7l1,-0.2l0,-4.5l-0.9,-0.1z" class="st42"/>
    <path id="svg_160" d="m600.6,54.6c-0.9,0 -1.6,-0.3 -2.1,-0.9s-0.8,-1.4 -0.8,-2.3l0,-0.3c0,-0.9 0.3,-1.7 0.8,-2.3s1.2,-0.9 1.9,-0.9c0.9,0 1.5,0.3 1.9,0.8s0.7,1.2 0.7,2.1l0,0.7l-4.1,0l0,0c0,0.6 0.2,1.1 0.5,1.5s0.7,0.6 1.2,0.6c0.4,0 0.7,-0.1 1,-0.2s0.5,-0.3 0.8,-0.5l0.5,0.8c-0.2,0.2 -0.5,0.4 -0.9,0.6s-0.9,0.3 -1.4,0.3zm-0.2,-5.7c-0.4,0 -0.7,0.2 -1,0.5s-0.4,0.7 -0.5,1.2l0,0l2.9,0l0,-0.2c0,-0.5 -0.1,-0.8 -0.4,-1.1s-0.5,-0.4 -1,-0.4z" class="st42"/>
    <path id="svg_161" d="m609,50.1l-0.9,0l-0.2,-0.8c-0.1,-0.1 -0.3,-0.2 -0.5,-0.3s-0.5,-0.1 -0.7,-0.1c-0.4,0 -0.7,0.1 -0.9,0.3s-0.3,0.4 -0.3,0.7c0,0.2 0.1,0.4 0.3,0.6s0.5,0.3 1.1,0.4c0.8,0.2 1.4,0.4 1.8,0.7s0.6,0.7 0.6,1.2c0,0.6 -0.2,1 -0.7,1.4s-1,0.5 -1.8,0.5c-0.5,0 -0.9,-0.1 -1.3,-0.2s-0.7,-0.3 -1,-0.5l0,-1.4l0.9,0l0.2,0.8c0.1,0.1 0.3,0.2 0.5,0.3s0.5,0.1 0.7,0.1c0.4,0 0.7,-0.1 1,-0.2s0.3,-0.4 0.3,-0.7c0,-0.3 -0.1,-0.5 -0.3,-0.6s-0.6,-0.3 -1.1,-0.4c-0.8,-0.2 -1.3,-0.4 -1.7,-0.7s-0.6,-0.7 -0.6,-1.2c0,-0.5 0.2,-1 0.7,-1.3s1,-0.5 1.7,-0.5c0.5,0 0.9,0.1 1.3,0.2s0.7,0.3 1,0.5l-0.1,1.2z" class="st42"/>
    <path id="svg_162" d="m615.1,50.1l-0.9,0l-0.2,-0.8c-0.1,-0.1 -0.3,-0.2 -0.5,-0.3s-0.5,-0.1 -0.7,-0.1c-0.4,0 -0.7,0.1 -0.9,0.3s-0.3,0.4 -0.3,0.7c0,0.2 0.1,0.4 0.3,0.6s0.5,0.3 1.1,0.4c0.8,0.2 1.4,0.4 1.8,0.7s0.6,0.7 0.6,1.2c0,0.6 -0.2,1 -0.7,1.4s-1,0.5 -1.8,0.5c-0.5,0 -0.9,-0.1 -1.3,-0.2s-0.7,-0.3 -1,-0.5l0,-1.4l0.9,0l0.2,0.8c0.1,0.1 0.3,0.2 0.5,0.3s0.5,0.1 0.7,0.1c0.4,0 0.7,-0.1 1,-0.2s0.3,-0.4 0.3,-0.7c0,-0.3 -0.1,-0.5 -0.3,-0.6s-0.6,-0.3 -1.1,-0.4c-0.8,-0.2 -1.3,-0.4 -1.7,-0.7s-0.6,-0.7 -0.6,-1.2c0,-0.5 0.2,-1 0.7,-1.3s1,-0.5 1.7,-0.5c0.5,0 0.9,0.1 1.3,0.2s0.7,0.3 1,0.5l-0.1,1.2z" class="st42"/>
   </g>
   <line id="svg_163" y2="52.1" x2="440.6" y1="52.1" x1="554.8" class="st61"/>
  </g>
  <g id="Layer_14"/>
 </g>
</svg>